{"title":"Ayaalum Njaanum Thammil (2012) Malayalam Movie DVDRip XviD  Excl","uid":8293153,"size":746751544,"categoryP":"video","categoryS":"movies","magnet":"?xt=urn:btih:b1045660e75716f7b7208368c514ffa87a4af2b9&amp;dn=Ayaalum+Njaanum+Thammil+%282012%29+Malayalam+Movie+DVDRip+XviD++Excl&amp;tr=udp%3A%2F%2Ftracker.openbittorrent.com%3A80&amp;tr=udp%3A%2F%2Fopen.demonii.com%3A1337&amp;tr=udp%3A%2F%2Ftracker.coppersurfer.tk%3A6969&amp;tr=udp%3A%2F%2Fexodus.desync.com%3A6969","seeders":1,"leechers":0,"uploader":"tykoon123","files":-1,"time":1364097776,"description":" &lt;a href=&quot;http://imgr.us/images/cxmi60jwzax1s3gubanh.jpg&quot; rel=&quot;nofollow&quot; target=&quot;_NEW&quot;&gt;http://imgr.us/images/cxmi60jwzax1s3gubanh.jpg&lt;/a&gt;\n\nInfo:\nFormat : AVI\nFormat/Info : Audio Video Interleave\nFile size : 712 MiB\nDuration : 2h 13mn\nOverall bit rate : 747 Kbps\n\n\n\nVideo\nID : 0\nFormat : MPEG-4 Visual\nFormat profile : Simple@L3\nFormat settings, BVOP : No\nFormat settings, QPel : No\nFormat settings, GMC : No warppoints\nFormat settings, Matrix : Default (H.263)\nCodec ID : XVID\nCodec ID/Hint : XviD\nDuration : 2h 13mn\nBit rate : 622 Kbps\nWidth : 608 pixels\nHeight : 272 pixels\nDisplay aspect ratio : 2.25:1\nFrame rate : 23.976 fps\nColor space : YUV\nChroma subsampling : 4:2:0\nBit depth : 8 bits\nScan type : Progressive\nCompression mode : Lossy\nBits/(Pixel*Frame) : 0.157\nStream size : 593 MiB (83%)\nWriting library : XviD 1.1.2 (UTC 2006-11-01)\n\n\n\nAudio\nID : 1\nFormat : MPEG Audio\nFormat version : Version 1\nFormat profile : Layer 3\nMode : Joint stereo\nMode extension : MS Stereo\nCodec ID : 55\nCodec ID/Hint : MP3\nDuration : 2h 13mn\nBit rate mode : Constant\nBit rate : 112 Kbps\nChannel(s) : 2 channels\nSampling rate : 48.0 KHz\nCompression mode : Lossy\nStream size : 107 MiB (15%)\nAlignment : Split accross interleaves\nInterleave, duration : 24 ms (0.58 video frame)\nWriting library : LAME3.98\n\n\nScreens: &lt;a href=&quot;\nhttp://imgr.us/images/b13d7jb1nak12zqksor.jpg&quot; rel=&quot;nofollow&quot; target=&quot;_NEW&quot;&gt;\nhttp://imgr.us/images/b13d7jb1nak12zqksor.jpg&lt;/a&gt;","torrent":{"xt":"urn:btih:b1045660e75716f7b7208368c514ffa87a4af2b9","amp;dn":"Ayaalum+Njaanum+Thammil+%282012%29+Malayalam+Movie+DVDRip+XviD++Excl","amp;tr":["udp%3A%2F%2Ftracker.openbittorrent.com%3A80","udp%3A%2F%2Fopen.demonii.com%3A1337","udp%3A%2F%2Ftracker.coppersurfer.tk%3A6969","udp%3A%2F%2Fexodus.desync.com%3A6969"],"infoHash":"b1045660e75716f7b7208368c514ffa87a4af2b9","infoHashBuffer":{"type":"Buffer","data":[177,4,86,96,231,87,22,247,183,32,131,104,197,20,255,168,122,74,242,185]},"announce":[],"urlList":[]}}